<svg width="28" height="28" viewBox="0 0 28 28" fill="none" xmlns="http://www.w3.org/2000/svg">
<mask id="mask0" mask-type="alpha" maskUnits="userSpaceOnUse" x="4" y="4" width="20" height="20">
<path fill-rule="evenodd" clip-rule="evenodd" d="M14 4.66666C8.84796 4.66666 4.66663 8.84799 4.66663 14C4.66663 19.152 8.84796 23.3333 14 23.3333C19.152 23.3333 23.3333 19.152 23.3333 14C23.3333 8.84799 19.152 4.66666 14 4.66666V4.66666ZM6.53329 14C6.53329 9.87466 9.87463 6.53332 14 6.53332C15.7266 6.53332 17.3133 7.12132 18.5733 8.11066L8.11063 18.5733C7.12129 17.3133 6.53329 15.7267 6.53329 14V14ZM14 21.4667C12.2733 21.4667 10.6866 20.8787 9.42662 19.8893L19.8893 9.42666C20.8786 10.6867 21.4666 12.2733 21.4666 14C21.4666 18.1253 18.1253 21.4667 14 21.4667V21.4667Z" fill="white"/>
</mask>
<g mask="url(#mask0)">
<rect x="2.80005" y="2.79999" width="23.3333" height="23.3333" fill="#D8D8D8"/>
</g>
</svg>
