<svg width="28" height="28" viewBox="0 0 28 28" fill="none" xmlns="http://www.w3.org/2000/svg">
<mask id="mask0" mask-type="alpha" maskUnits="userSpaceOnUse" x="3" y="7" width="22" height="14">
<path fill-rule="evenodd" clip-rule="evenodd" d="M17.7333 13.0667C19.2826 13.0667 20.5239 11.816 20.5239 10.2667C20.5239 8.71734 19.2826 7.46667 17.7333 7.46667C16.1839 7.46667 14.9333 8.71734 14.9333 10.2667C14.9333 11.816 16.1839 13.0667 17.7333 13.0667V13.0667ZM10.2666 13.0667C11.8159 13.0667 13.0573 11.816 13.0573 10.2667C13.0573 8.71734 11.8159 7.46667 10.2666 7.46667C8.71728 7.46667 7.46661 8.71734 7.46661 10.2667C7.46661 11.816 8.71728 13.0667 10.2666 13.0667V13.0667ZM10.2666 14.9333C8.09194 14.9333 3.73328 16.0253 3.73328 18.2V20.5333H16.7999V18.2C16.7999 16.0253 12.4413 14.9333 10.2666 14.9333V14.9333ZM17.7333 14.9333C17.4626 14.9333 17.1546 14.952 16.8279 14.98C17.9106 15.764 18.6666 16.8187 18.6666 18.2V20.5333H24.2666V18.2C24.2666 16.0253 19.9079 14.9333 17.7333 14.9333V14.9333Z" fill="white"/>
</mask>
<g mask="url(#mask0)">
<rect x="2.80005" y="2.79999" width="22.4" height="22.4" fill="#D8D8D8"/>
</g>
</svg>
