<svg width="28" height="28" viewBox="0 0 28 28" fill="none" xmlns="http://www.w3.org/2000/svg">
<mask id="mask0" mask-type="alpha" maskUnits="userSpaceOnUse" x="3" y="6" width="22" height="16">
<path fill-rule="evenodd" clip-rule="evenodd" d="M16.7999 14C18.8626 14 20.5333 12.3293 20.5333 10.2667C20.5333 8.20399 18.8626 6.53333 16.7999 6.53333C14.7373 6.53333 13.0666 8.20399 13.0666 10.2667C13.0666 12.3293 14.7373 14 16.7999 14V14ZM8.39994 12.1333V9.33333H6.53328V12.1333H3.73328V14H6.53328V16.8H8.39994V14H11.1999V12.1333H8.39994V12.1333ZM16.7999 15.8667C14.3079 15.8667 9.33328 17.1173 9.33328 19.6V21.4667H24.2666V19.6C24.2666 17.1173 19.2919 15.8667 16.7999 15.8667V15.8667Z" fill="white"/>
</mask>
<g mask="url(#mask0)">
<rect x="2.80005" y="2.79999" width="22.4" height="22.4" fill="#D8D8D8"/>
</g>
</svg>
